# xmcd
#
# Track frame offsets:
# 150
# 15448
# 46247
# 59503
# 71221
# 85669
# 106110
# 136319
# 151096
# 167399
# 191878
# 216997
# 242091
# 257616
# 286942
# 310012
#
# Disc length: 4422 seconds
#
#
# Revision: 0
# Processed by: cddbd v1.5.2PL0 Copyright (c) Steve Scherf et al.
# Submitted via: FreeRIP 2.945 
#
DISCID=d4114410
DTITLE=Chico Pedrosa - Paisagem Sertaneja
DYEAR=2003
DGENRE=Poezia de Cordel
TTITLE0=O Erro da Vendedora (Chico Pedrosa)
TTITLE1=O Filosofo Zé Gogó (Chico Pedrosa)
TTITLE2=Joâo de Barro (Chico Pedrosa)
TTITLE3=Moça Rica (Zé Laurentino)
TTITLE4=O Doido e Seu Ferrro Velho (Chico Pedrosa)
TTITLE5=O Matuto e a Calega (Chico Pedrosa)
TTITLE6=O Gato e a Raposa (Chico Pedrosa)
TTITLE7=O Filho de Exelêlencia ( Amazan)
TTITLE8=A Botija de Zé Duda (Chico Pedrosa)
TTITLE9=Moradores de Estrada (Chico Pedrosa)
TTITLE10=O Fidalgo Caçador (Chico Pedrosa)
TTITLE11=Retorno da Casa Paterna (Zé Laurentino)
TTITLE12=Cabôco Revoltado (Chico Pedrosa)
TTITLE13=A Besta do Velho Quinca (Chico Pedrosa)
TTITLE14=O Preço da Inocência (Chico Pedrosa)
TTITLE15=Pilão de Pedra (Chico Pedrosa)
EXTD=
EXTT0=
EXTT1=
EXTT2=
EXTT3=
EXTT4=
EXTT5=
EXTT6=
EXTT7=
EXTT8=
EXTT9=
EXTT10=
EXTT11=
EXTT12=
EXTT13=
EXTT14=
EXTT15=
PLAYORDER=
